<mxfile host="app.diagrams.net" modified="2024-05-04T14:39:35.578Z" agent="Mozilla/5.0 (Windows NT 10.0; Win64; x64) AppleWebKit/537.36 (KHTML, like Gecko) Chrome/124.0.0.0 Safari/537.36" etag="XkcLBvDnyU3JEweqvSiM" version="24.3.1" type="device">
  <diagram id="YrfzH3xwVrYN7FTBeiER" name="Page-1">
    <mxGraphModel dx="882" dy="578" grid="1" gridSize="10" guides="1" tooltips="1" connect="1" arrows="1" fold="1" page="1" pageScale="1" pageWidth="850" pageHeight="1100" math="0" shadow="0">
      <root>
        <mxCell id="0" />
        <mxCell id="1" parent="0" />
        <mxCell id="6vxFls2rog6D166e4xHc-20" style="edgeStyle=orthogonalEdgeStyle;rounded=0;orthogonalLoop=1;jettySize=auto;html=1;exitX=0.5;exitY=0;exitDx=0;exitDy=0;entryX=0.5;entryY=1;entryDx=0;entryDy=0;" edge="1" parent="1" source="6vxFls2rog6D166e4xHc-1" target="6vxFls2rog6D166e4xHc-12">
          <mxGeometry relative="1" as="geometry" />
        </mxCell>
        <mxCell id="6vxFls2rog6D166e4xHc-21" style="edgeStyle=orthogonalEdgeStyle;rounded=0;orthogonalLoop=1;jettySize=auto;html=1;exitX=0.5;exitY=1;exitDx=0;exitDy=0;entryX=0.5;entryY=0;entryDx=0;entryDy=0;" edge="1" parent="1" source="6vxFls2rog6D166e4xHc-1" target="6vxFls2rog6D166e4xHc-8">
          <mxGeometry relative="1" as="geometry" />
        </mxCell>
        <mxCell id="6vxFls2rog6D166e4xHc-1" value="Hotel service" style="rounded=1;whiteSpace=wrap;html=1;" vertex="1" parent="1">
          <mxGeometry x="40" y="320" width="120" height="60" as="geometry" />
        </mxCell>
        <mxCell id="6vxFls2rog6D166e4xHc-22" style="edgeStyle=orthogonalEdgeStyle;rounded=0;orthogonalLoop=1;jettySize=auto;html=1;exitX=0.5;exitY=1;exitDx=0;exitDy=0;" edge="1" parent="1" source="6vxFls2rog6D166e4xHc-2" target="6vxFls2rog6D166e4xHc-9">
          <mxGeometry relative="1" as="geometry" />
        </mxCell>
        <mxCell id="6vxFls2rog6D166e4xHc-2" value="Rate service" style="rounded=1;whiteSpace=wrap;html=1;" vertex="1" parent="1">
          <mxGeometry x="240" y="320" width="120" height="60" as="geometry" />
        </mxCell>
        <mxCell id="6vxFls2rog6D166e4xHc-23" style="edgeStyle=orthogonalEdgeStyle;rounded=0;orthogonalLoop=1;jettySize=auto;html=1;exitX=0.5;exitY=1;exitDx=0;exitDy=0;entryX=0.5;entryY=0;entryDx=0;entryDy=0;" edge="1" parent="1" source="6vxFls2rog6D166e4xHc-3" target="6vxFls2rog6D166e4xHc-10">
          <mxGeometry relative="1" as="geometry" />
        </mxCell>
        <mxCell id="6vxFls2rog6D166e4xHc-3" value="Reservation service" style="rounded=1;whiteSpace=wrap;html=1;" vertex="1" parent="1">
          <mxGeometry x="480" y="320" width="120" height="60" as="geometry" />
        </mxCell>
        <mxCell id="6vxFls2rog6D166e4xHc-24" style="edgeStyle=orthogonalEdgeStyle;rounded=0;orthogonalLoop=1;jettySize=auto;html=1;exitX=0.5;exitY=1;exitDx=0;exitDy=0;entryX=0.5;entryY=0;entryDx=0;entryDy=0;" edge="1" parent="1" source="6vxFls2rog6D166e4xHc-4" target="6vxFls2rog6D166e4xHc-11">
          <mxGeometry relative="1" as="geometry" />
        </mxCell>
        <mxCell id="6vxFls2rog6D166e4xHc-4" value="Payment service" style="rounded=1;whiteSpace=wrap;html=1;" vertex="1" parent="1">
          <mxGeometry x="680" y="320" width="120" height="60" as="geometry" />
        </mxCell>
        <mxCell id="6vxFls2rog6D166e4xHc-25" style="edgeStyle=orthogonalEdgeStyle;rounded=0;orthogonalLoop=1;jettySize=auto;html=1;exitX=0;exitY=0.5;exitDx=0;exitDy=0;entryX=0.75;entryY=0;entryDx=0;entryDy=0;" edge="1" parent="1" source="6vxFls2rog6D166e4xHc-5" target="6vxFls2rog6D166e4xHc-1">
          <mxGeometry relative="1" as="geometry" />
        </mxCell>
        <mxCell id="6vxFls2rog6D166e4xHc-26" style="edgeStyle=orthogonalEdgeStyle;rounded=0;orthogonalLoop=1;jettySize=auto;html=1;exitX=1;exitY=0.5;exitDx=0;exitDy=0;" edge="1" parent="1" source="6vxFls2rog6D166e4xHc-5" target="6vxFls2rog6D166e4xHc-4">
          <mxGeometry relative="1" as="geometry" />
        </mxCell>
        <mxCell id="6vxFls2rog6D166e4xHc-27" style="edgeStyle=orthogonalEdgeStyle;rounded=0;orthogonalLoop=1;jettySize=auto;html=1;exitX=0.25;exitY=1;exitDx=0;exitDy=0;" edge="1" parent="1" source="6vxFls2rog6D166e4xHc-5" target="6vxFls2rog6D166e4xHc-2">
          <mxGeometry relative="1" as="geometry" />
        </mxCell>
        <mxCell id="6vxFls2rog6D166e4xHc-28" style="edgeStyle=orthogonalEdgeStyle;rounded=0;orthogonalLoop=1;jettySize=auto;html=1;exitX=0.75;exitY=1;exitDx=0;exitDy=0;entryX=0.5;entryY=0;entryDx=0;entryDy=0;" edge="1" parent="1" source="6vxFls2rog6D166e4xHc-5" target="6vxFls2rog6D166e4xHc-3">
          <mxGeometry relative="1" as="geometry" />
        </mxCell>
        <mxCell id="6vxFls2rog6D166e4xHc-5" value="Public API gateway" style="rounded=1;whiteSpace=wrap;html=1;" vertex="1" parent="1">
          <mxGeometry x="360" y="200" width="120" height="60" as="geometry" />
        </mxCell>
        <mxCell id="6vxFls2rog6D166e4xHc-18" style="edgeStyle=orthogonalEdgeStyle;rounded=0;orthogonalLoop=1;jettySize=auto;html=1;exitX=0;exitY=0.5;exitDx=0;exitDy=0;entryX=1;entryY=0.5;entryDx=0;entryDy=0;" edge="1" parent="1" source="6vxFls2rog6D166e4xHc-6" target="6vxFls2rog6D166e4xHc-7">
          <mxGeometry relative="1" as="geometry" />
        </mxCell>
        <mxCell id="6vxFls2rog6D166e4xHc-19" style="edgeStyle=orthogonalEdgeStyle;rounded=0;orthogonalLoop=1;jettySize=auto;html=1;exitX=0.5;exitY=1;exitDx=0;exitDy=0;entryX=0.5;entryY=0;entryDx=0;entryDy=0;" edge="1" parent="1" source="6vxFls2rog6D166e4xHc-6" target="6vxFls2rog6D166e4xHc-5">
          <mxGeometry relative="1" as="geometry" />
        </mxCell>
        <mxCell id="6vxFls2rog6D166e4xHc-6" value="User" style="rounded=1;whiteSpace=wrap;html=1;" vertex="1" parent="1">
          <mxGeometry x="360" y="80" width="120" height="60" as="geometry" />
        </mxCell>
        <mxCell id="6vxFls2rog6D166e4xHc-7" value="CDN" style="rounded=1;whiteSpace=wrap;html=1;" vertex="1" parent="1">
          <mxGeometry x="160" y="80" width="120" height="60" as="geometry" />
        </mxCell>
        <mxCell id="6vxFls2rog6D166e4xHc-8" value="Hotel DB" style="rounded=1;whiteSpace=wrap;html=1;" vertex="1" parent="1">
          <mxGeometry x="40" y="440" width="120" height="60" as="geometry" />
        </mxCell>
        <mxCell id="6vxFls2rog6D166e4xHc-9" value="Rate DB" style="rounded=1;whiteSpace=wrap;html=1;" vertex="1" parent="1">
          <mxGeometry x="240" y="440" width="120" height="60" as="geometry" />
        </mxCell>
        <mxCell id="6vxFls2rog6D166e4xHc-10" value="Reservation DB" style="rounded=1;whiteSpace=wrap;html=1;" vertex="1" parent="1">
          <mxGeometry x="480" y="440" width="120" height="60" as="geometry" />
        </mxCell>
        <mxCell id="6vxFls2rog6D166e4xHc-11" value="Payment DB" style="rounded=1;whiteSpace=wrap;html=1;" vertex="1" parent="1">
          <mxGeometry x="680" y="440" width="120" height="60" as="geometry" />
        </mxCell>
        <mxCell id="6vxFls2rog6D166e4xHc-12" value="Hotel cache" style="rounded=1;whiteSpace=wrap;html=1;" vertex="1" parent="1">
          <mxGeometry x="40" y="240" width="80" height="40" as="geometry" />
        </mxCell>
        <mxCell id="6vxFls2rog6D166e4xHc-16" style="edgeStyle=orthogonalEdgeStyle;rounded=0;orthogonalLoop=1;jettySize=auto;html=1;exitX=0.5;exitY=1;exitDx=0;exitDy=0;" edge="1" parent="1" source="6vxFls2rog6D166e4xHc-13" target="6vxFls2rog6D166e4xHc-14">
          <mxGeometry relative="1" as="geometry" />
        </mxCell>
        <mxCell id="6vxFls2rog6D166e4xHc-13" value="Admin" style="rounded=1;whiteSpace=wrap;html=1;" vertex="1" parent="1">
          <mxGeometry x="360" y="600" width="120" height="60" as="geometry" />
        </mxCell>
        <mxCell id="6vxFls2rog6D166e4xHc-17" style="edgeStyle=orthogonalEdgeStyle;rounded=0;orthogonalLoop=1;jettySize=auto;html=1;exitX=0.5;exitY=1;exitDx=0;exitDy=0;" edge="1" parent="1" source="6vxFls2rog6D166e4xHc-14" target="6vxFls2rog6D166e4xHc-15">
          <mxGeometry relative="1" as="geometry" />
        </mxCell>
        <mxCell id="6vxFls2rog6D166e4xHc-14" value="Internal API" style="rounded=1;whiteSpace=wrap;html=1;" vertex="1" parent="1">
          <mxGeometry x="360" y="720" width="120" height="60" as="geometry" />
        </mxCell>
        <mxCell id="6vxFls2rog6D166e4xHc-15" value="Hotel management service" style="rounded=1;whiteSpace=wrap;html=1;" vertex="1" parent="1">
          <mxGeometry x="360" y="840" width="120" height="60" as="geometry" />
        </mxCell>
      </root>
    </mxGraphModel>
  </diagram>
</mxfile>
